<svg id="svg" version="1.1" width="500" height="500" xmlns="http://www.w3.org/2000/svg" xmlns:xlink="http://www.w3.org/1999/xlink" style="display: block;"><g id="svgg"><path id="path0" d="M54.000 126.125 C 45.627 127.122,44.272 128.441,42.816 137.010 C 41.708 143.538,42.923 143.931,44.551 137.571 C 46.020 131.831,48.709 129.114,54.121 127.903 C 57.775 127.085,60.358 125.365,57.400 125.720 C 56.850 125.786,55.320 125.968,54.000 126.125 M141.600 126.288 C 141.600 126.650,143.526 127.376,145.879 127.903 C 151.290 129.114,154.076 131.905,155.389 137.432 C 156.893 143.765,158.262 143.358,157.166 136.904 C 156.007 130.084,155.014 128.311,151.806 127.337 C 148.004 126.183,141.600 125.524,141.600 126.288 M254.000 126.125 C 245.650 127.119,244.270 128.451,242.834 136.904 C 241.738 143.358,243.107 143.765,244.611 137.432 C 245.924 131.905,248.710 129.114,254.121 127.903 C 257.775 127.085,260.358 125.365,257.400 125.720 C 256.850 125.786,255.320 125.968,254.000 126.125 M341.600 126.288 C 341.600 126.650,343.526 127.376,345.879 127.903 C 351.291 129.114,353.980 131.831,355.449 137.571 C 357.077 143.931,358.292 143.538,357.184 137.010 C 356.007 130.082,355.024 128.314,351.806 127.337 C 348.004 126.183,341.600 125.524,341.600 126.288 M29.421 143.323 C 26.791 144.284,25.564 147.944,25.706 154.400 L 25.803 158.800 26.448 153.848 C 27.506 145.719,28.991 144.186,36.780 143.180 L 41.200 142.610 36.400 142.568 C 33.760 142.545,30.620 142.885,29.421 143.323 M363.220 143.180 C 371.009 144.186,372.494 145.719,373.552 153.848 L 374.197 158.800 374.294 154.400 C 374.509 144.631,372.345 142.293,363.281 142.505 L 358.800 142.610 363.220 143.180 M25.074 168.400 C 25.077 171.920,25.218 173.260,25.387 171.379 C 25.556 169.497,25.553 166.617,25.382 164.979 C 25.210 163.340,25.071 164.880,25.074 168.400 M374.674 168.400 C 374.677 171.920,374.818 173.260,374.987 171.379 C 375.156 169.497,375.153 166.617,374.982 164.979 C 374.810 163.340,374.671 164.880,374.674 168.400 M25.116 186.800 C 25.117 192.960,25.242 195.374,25.395 192.165 C 25.547 188.956,25.546 183.916,25.392 180.965 C 25.239 178.014,25.114 180.640,25.116 186.800 M374.716 186.800 C 374.717 192.960,374.842 195.374,374.995 192.165 C 375.147 188.956,375.146 183.916,374.992 180.965 C 374.839 178.014,374.714 180.640,374.716 186.800 M25.612 204.572 C 25.598 206.571,27.783 208.047,30.547 207.905 C 32.062 207.828,31.967 207.718,30.022 207.301 C 28.617 207.000,27.230 205.975,26.633 204.796 C 25.657 202.866,25.623 202.859,25.612 204.572 M373.200 204.952 C 372.723 206.052,371.432 207.001,370.000 207.303 C 367.766 207.776,367.741 207.817,369.647 207.905 C 372.282 208.027,374.655 206.286,374.287 204.501 C 374.048 203.339,373.868 203.413,373.200 204.952 M77.400 358.199 C 89.830 358.323,110.170 358.323,122.600 358.199 C 135.030 358.076,124.860 357.974,100.000 357.974 C 75.140 357.974,64.970 358.076,77.400 358.199 M277.400 358.199 C 289.830 358.323,310.170 358.323,322.600 358.199 C 335.030 358.076,324.860 357.974,300.000 357.974 C 275.140 357.974,264.970 358.076,277.400 358.199 " stroke="none" fill="#000000" fill-rule="evenodd"></path><path id="path1" d="M43.200 120.274 C 43.200 121.839,46.749 124.311,48.174 123.738 C 48.841 123.471,48.730 123.304,47.858 123.263 C 47.120 123.228,45.770 122.251,44.858 121.092 C 43.672 119.584,43.200 119.351,43.200 120.274 M155.759 120.274 C 155.465 121.040,154.049 122.178,152.612 122.802 C 150.552 123.698,150.362 123.944,151.711 123.969 C 153.912 124.009,157.137 121.410,156.660 119.981 C 156.384 119.152,156.162 119.224,155.759 120.274 M243.200 120.274 C 243.200 121.839,246.749 124.311,248.174 123.738 C 248.841 123.471,248.730 123.304,247.858 123.263 C 247.120 123.228,245.770 122.251,244.858 121.092 C 243.672 119.584,243.200 119.351,243.200 120.274 M355.759 120.274 C 355.465 121.040,354.049 122.178,352.612 122.802 C 350.552 123.698,350.362 123.944,351.711 123.969 C 353.912 124.009,357.137 121.410,356.660 119.981 C 356.384 119.152,356.162 119.224,355.759 120.274 M54.600 124.551 C 55.370 124.753,56.630 124.753,57.400 124.551 C 58.170 124.350,57.540 124.186,56.000 124.186 C 54.460 124.186,53.830 124.350,54.600 124.551 M254.600 124.551 C 255.370 124.753,256.630 124.753,257.400 124.551 C 258.170 124.350,257.540 124.186,256.000 124.186 C 254.460 124.186,253.830 124.350,254.600 124.551 M49.135 210.460 C 45.786 211.432,44.009 213.601,43.530 217.301 L 43.128 220.400 44.310 217.282 C 45.897 213.096,47.174 211.973,51.736 210.747 C 53.926 210.158,54.734 209.716,53.600 209.726 C 52.500 209.736,50.491 210.066,49.135 210.460 M348.264 210.679 C 352.868 211.997,354.143 213.142,355.619 217.282 C 356.373 219.400,356.741 219.839,356.765 218.652 C 356.864 213.725,353.857 210.766,348.000 210.027 L 344.400 209.573 348.264 210.679 M42.586 224.800 C 42.586 226.340,42.750 226.970,42.951 226.200 C 43.153 225.430,43.153 224.170,42.951 223.400 C 42.750 222.630,42.586 223.260,42.586 224.800 M356.986 224.800 C 356.986 226.340,357.150 226.970,357.351 226.200 C 357.553 225.430,357.553 224.170,357.351 223.400 C 357.150 222.630,356.986 223.260,356.986 224.800 M42.586 258.400 C 42.586 259.940,42.750 260.570,42.951 259.800 C 43.153 259.030,43.153 257.770,42.951 257.000 C 42.750 256.230,42.586 256.860,42.586 258.400 M356.986 258.400 C 356.986 259.940,357.150 260.570,357.351 259.800 C 357.553 259.030,357.553 257.770,357.351 257.000 C 357.150 256.230,356.986 256.860,356.986 258.400 M43.565 265.899 C 44.126 270.646,49.154 274.459,53.394 273.353 C 54.437 273.080,54.326 272.962,52.960 272.893 C 48.664 272.676,45.619 269.975,43.889 264.847 C 43.334 263.199,43.271 263.404,43.565 265.899 M356.109 264.240 C 355.795 268.394,352.704 271.549,347.600 272.925 C 345.486 273.495,345.568 273.531,348.285 273.223 C 353.752 272.603,357.394 268.737,356.545 264.452 C 356.283 263.127,356.196 263.085,356.109 264.240 " stroke="none" fill="#ff0000" fill-rule="evenodd"></path><path id="path2" d="M82.992 44.312 C 77.410 46.362,75.224 50.262,76.687 55.560 C 77.154 57.252,77.174 58.400,76.736 58.400 C 76.331 58.400,75.994 57.950,75.988 57.400 C 75.979 56.649,75.807 56.665,75.301 57.464 C 74.905 58.089,72.681 58.648,69.913 58.819 C 58.942 59.496,59.494 58.941,58.816 69.980 C 58.655 72.608,58.120 74.893,57.628 75.057 C 56.983 75.272,56.975 75.647,57.601 76.402 C 58.309 77.254,57.880 77.298,55.278 76.637 C 45.889 74.254,43.600 78.860,43.600 100.141 C 43.600 120.872,43.762 121.190,55.600 123.717 C 57.998 124.229,58.862 124.832,59.045 126.122 C 60.153 133.897,139.836 133.912,140.955 126.138 C 141.210 124.362,142.832 123.618,148.289 122.773 C 155.502 121.655,157.026 117.089,156.662 97.680 C 156.312 78.980,153.680 74.364,144.671 76.650 C 142.915 77.096,141.600 77.124,141.600 76.715 C 141.600 76.322,142.050 75.994,142.600 75.988 C 143.351 75.979,143.335 75.807,142.536 75.301 C 141.911 74.905,141.352 72.681,141.181 69.913 C 140.505 58.950,141.050 59.495,130.087 58.819 C 127.319 58.648,125.095 58.089,124.699 57.464 C 124.193 56.665,124.021 56.649,124.012 57.400 C 124.006 57.950,123.678 58.400,123.285 58.400 C 122.876 58.400,122.904 57.085,123.350 55.329 C 124.399 51.196,122.654 47.013,119.063 45.053 C 115.502 43.110,87.816 42.541,82.992 44.312 M282.992 44.312 C 277.410 46.362,275.224 50.262,276.687 55.560 C 277.154 57.252,277.174 58.400,276.736 58.400 C 276.331 58.400,275.994 57.950,275.988 57.400 C 275.979 56.649,275.807 56.665,275.301 57.464 C 274.905 58.089,272.681 58.648,269.913 58.819 C 258.942 59.496,259.494 58.941,258.816 69.980 C 258.655 72.608,258.120 74.893,257.628 75.057 C 256.983 75.272,256.975 75.647,257.601 76.402 C 258.309 77.254,257.880 77.298,255.278 76.637 C 245.889 74.254,243.600 78.860,243.600 100.141 C 243.600 120.872,243.762 121.190,255.600 123.717 C 257.998 124.229,258.862 124.832,259.045 126.122 C 260.153 133.897,339.836 133.912,340.955 126.138 C 341.210 124.362,342.832 123.618,348.289 122.773 C 355.502 121.655,357.026 117.089,356.662 97.680 C 356.312 78.980,353.680 74.364,344.671 76.650 C 342.915 77.096,341.600 77.124,341.600 76.715 C 341.600 76.322,342.050 75.994,342.600 75.988 C 343.351 75.979,343.335 75.807,342.536 75.301 C 341.911 74.905,341.352 72.681,341.181 69.913 C 340.505 58.950,341.050 59.495,330.087 58.819 C 327.319 58.648,325.095 58.089,324.699 57.464 C 324.193 56.665,324.021 56.649,324.012 57.400 C 324.006 57.950,323.678 58.400,323.285 58.400 C 322.876 58.400,322.904 57.085,323.350 55.329 C 324.399 51.196,322.654 47.013,319.063 45.053 C 315.502 43.110,287.816 42.541,282.992 44.312 M81.214 47.332 C 80.003 48.285,78.528 50.175,77.937 51.532 C 77.346 52.889,76.849 53.450,76.831 52.778 C 76.776 50.629,80.832 45.693,82.708 45.625 C 83.097 45.611,82.425 46.379,81.214 47.332 M119.237 46.625 C 121.090 48.086,123.204 51.394,123.169 52.778 C 123.151 53.450,122.654 52.889,122.063 51.532 C 121.472 50.175,119.997 48.285,118.786 47.332 C 117.575 46.379,116.903 45.611,117.292 45.625 C 117.681 45.639,118.557 46.089,119.237 46.625 M281.214 47.332 C 280.003 48.285,278.528 50.175,277.937 51.532 C 277.346 52.889,276.849 53.450,276.831 52.778 C 276.776 50.629,280.832 45.693,282.708 45.625 C 283.097 45.611,282.425 46.379,281.214 47.332 M319.237 46.625 C 321.090 48.086,323.204 51.394,323.169 52.778 C 323.151 53.450,322.654 52.889,322.063 51.532 C 321.472 50.175,319.997 48.285,318.786 47.332 C 317.575 46.379,316.903 45.611,317.292 45.625 C 317.681 45.639,318.557 46.089,319.237 46.625 M52.800 77.371 C 52.140 77.616,50.880 78.147,50.000 78.552 C 48.426 79.276,48.425 79.268,49.953 78.044 C 50.807 77.360,52.067 76.828,52.753 76.863 C 53.830 76.918,53.837 76.987,52.800 77.371 M150.422 78.163 C 152.639 79.691,154.336 81.643,154.375 82.708 C 154.389 83.097,153.621 82.425,152.668 81.214 C 151.715 80.003,149.825 78.528,148.468 77.937 C 147.111 77.346,146.550 76.849,147.222 76.831 C 147.894 76.814,149.334 77.413,150.422 78.163 M252.800 77.371 C 252.140 77.616,250.880 78.147,250.000 78.552 C 248.426 79.276,248.425 79.268,249.953 78.044 C 250.807 77.360,252.067 76.828,252.753 76.863 C 253.830 76.918,253.837 76.987,252.800 77.371 M350.422 78.163 C 352.639 79.691,354.336 81.643,354.375 82.708 C 354.389 83.097,353.621 82.425,352.668 81.214 C 351.715 80.003,349.825 78.528,348.468 77.937 C 347.111 77.346,346.550 76.849,347.222 76.831 C 347.894 76.814,349.334 77.413,350.422 78.163 M174.400 126.410 C 173.740 126.830,172.088 126.970,170.729 126.722 C 165.024 125.679,159.276 130.881,160.413 136.058 C 160.758 137.629,160.612 138.400,159.970 138.400 C 159.333 138.400,159.188 139.134,159.538 140.600 C 160.597 145.046,160.883 146.917,161.342 152.400 C 161.600 155.480,162.440 159.260,163.207 160.800 C 165.983 166.371,167.135 174.183,166.746 184.800 C 166.090 202.668,165.804 204.880,163.879 206.929 L 162.121 208.800 167.261 208.806 C 170.087 208.810,176.706 209.350,181.970 210.006 C 193.020 211.385,206.464 211.545,215.621 210.408 C 219.129 209.972,223.260 209.456,224.800 209.262 C 226.340 209.067,230.480 208.870,234.000 208.823 C 240.125 208.741,240.292 208.691,237.896 207.648 C 234.684 206.250,234.527 205.951,234.055 200.317 C 232.209 178.296,232.907 168.136,236.763 160.880 C 237.636 159.237,238.482 155.595,238.733 152.400 C 239.171 146.812,239.472 144.756,240.462 140.600 C 240.812 139.134,240.667 138.400,240.030 138.400 C 239.388 138.400,239.242 137.629,239.587 136.058 C 240.718 130.908,235.926 126.499,229.059 126.371 C 196.780 125.768,175.385 125.784,174.400 126.410 M90.000 204.497 C 88.680 204.698,84.900 205.372,81.600 205.995 C 73.898 207.450,66.895 208.267,62.605 208.213 C 60.738 208.189,59.410 208.492,59.653 208.885 C 59.896 209.278,59.692 209.600,59.200 209.600 C 58.708 209.600,58.508 209.928,58.756 210.329 C 59.004 210.730,57.825 211.292,56.136 211.577 C 47.924 212.964,43.189 221.219,43.208 234.119 C 43.212 236.254,43.190 239.440,43.161 241.200 C 42.842 260.217,45.865 268.286,54.409 271.229 C 56.824 272.060,58.723 273.076,58.628 273.485 C 58.333 274.769,62.555 275.883,69.200 276.275 C 72.720 276.482,77.580 277.135,80.000 277.726 C 86.873 279.404,113.789 279.167,122.400 277.354 C 132.996 275.122,132.588 275.550,132.740 266.516 C 132.837 260.717,133.560 256.018,135.650 247.600 C 139.753 231.078,140.005 230.228,141.604 227.463 C 143.421 224.322,144.153 212.917,142.470 213.957 C 141.627 214.478,141.752 212.869,142.670 211.400 C 143.252 210.468,142.311 210.008,140.502 210.338 C 140.118 210.408,140.013 209.920,140.269 209.253 C 140.631 208.310,140.164 208.073,138.167 208.185 C 134.388 208.396,124.402 207.251,118.000 205.872 C 112.440 204.675,94.599 203.799,90.000 204.497 M290.000 204.497 C 288.680 204.698,284.900 205.372,281.600 205.995 C 273.928 207.444,266.899 208.267,262.658 208.214 C 260.074 208.181,259.416 208.432,259.756 209.319 C 259.998 209.949,259.882 210.408,259.498 210.338 C 257.689 210.008,256.748 210.468,257.330 211.400 C 258.248 212.869,258.373 214.478,257.530 213.957 C 256.093 213.069,256.500 224.373,257.989 226.733 C 262.159 233.342,267.297 258.774,267.314 272.896 C 267.319 277.702,305.686 281.220,320.000 277.726 C 322.420 277.135,327.280 276.482,330.800 276.275 C 337.445 275.883,341.667 274.769,341.372 273.485 C 341.277 273.076,343.176 272.060,345.591 271.229 C 353.019 268.671,356.139 262.553,356.418 250.000 C 356.496 246.480,356.831 242.973,357.163 242.207 C 357.561 241.287,357.363 240.659,356.580 240.358 C 355.611 239.987,355.543 239.319,356.207 236.704 C 358.938 225.942,352.608 213.054,343.864 211.577 C 342.175 211.292,340.996 210.730,341.244 210.329 C 341.492 209.928,341.292 209.600,340.800 209.600 C 340.308 209.600,340.124 209.247,340.390 208.816 C 340.676 208.354,339.790 208.092,338.238 208.180 C 334.399 208.396,324.453 207.262,318.000 205.872 C 312.440 204.675,294.599 203.799,290.000 204.497 M50.697 266.394 L 52.400 268.389 50.518 266.796 C 48.686 265.246,46.368 261.526,46.432 260.240 C 46.450 259.888,47.033 260.680,47.729 262.000 C 48.425 263.320,49.761 265.297,50.697 266.394 M352.541 262.928 C 351.893 264.179,350.530 265.923,349.510 266.802 C 347.910 268.181,347.946 268.044,349.773 265.804 C 350.937 264.377,352.127 262.460,352.418 261.544 C 352.708 260.628,353.120 260.053,353.332 260.265 C 353.544 260.478,353.188 261.676,352.541 262.928 " stroke="none" fill="#ffb84c" fill-rule="evenodd"></path><path id="path3" d="M58.792 131.336 C 59.593 137.449,60.649 138.195,69.200 138.700 C 73.160 138.934,78.740 139.495,81.600 139.946 C 84.460 140.398,92.740 140.768,100.000 140.768 C 107.260 140.768,115.540 140.398,118.400 139.946 C 121.260 139.495,126.840 138.934,130.800 138.700 C 139.351 138.195,140.407 137.449,141.208 131.336 L 141.768 127.072 139.484 128.248 C 130.550 132.846,69.450 132.846,60.516 128.248 L 58.232 127.072 58.792 131.336 M258.792 131.336 C 259.593 137.449,260.649 138.195,269.200 138.700 C 273.160 138.934,278.740 139.495,281.600 139.946 C 284.460 140.398,292.740 140.768,300.000 140.768 C 307.260 140.768,315.540 140.398,318.400 139.946 C 321.260 139.495,326.840 138.934,330.800 138.700 C 339.351 138.195,340.407 137.449,341.208 131.336 L 341.768 127.072 339.484 128.248 C 336.235 129.920,314.346 132.000,300.000 132.000 C 285.654 132.000,263.765 129.920,260.516 128.248 L 258.232 127.072 258.792 131.336 M157.325 142.997 C 156.681 144.039,157.150 161.926,158.305 180.400 C 158.800 188.320,159.069 197.770,158.903 201.400 C 158.587 208.306,159.007 209.235,161.039 206.134 C 164.792 200.405,164.915 172.293,161.235 161.412 C 160.600 159.535,159.985 155.210,159.868 151.799 C 159.663 145.806,158.365 141.315,157.325 142.997 M241.073 144.225 C 240.654 145.201,240.214 148.684,240.094 151.964 C 239.957 155.740,239.128 160.142,237.836 163.964 C 233.864 175.709,235.905 208.012,240.618 207.998 C 240.938 207.997,241.289 199.502,241.399 189.120 C 241.508 178.738,241.811 169.288,242.072 168.122 C 242.882 164.506,243.266 143.335,242.530 142.880 C 242.147 142.644,241.491 143.249,241.073 144.225 M85.057 197.529 C 81.899 198.306,78.358 199.568,77.188 200.334 C 75.509 201.434,68.502 204.045,66.400 204.354 C 65.251 204.522,59.919 207.386,60.211 207.678 C 60.829 208.296,73.083 206.326,79.600 204.561 C 88.933 202.033,111.067 202.033,120.400 204.561 C 126.917 206.326,139.171 208.296,139.789 207.678 C 140.081 207.386,134.749 204.522,133.600 204.354 C 131.576 204.056,124.631 201.466,122.400 200.176 C 115.267 196.053,96.482 194.721,85.057 197.529 M285.057 197.529 C 281.899 198.306,278.358 199.568,277.188 200.334 C 275.509 201.434,268.502 204.045,266.400 204.354 C 265.251 204.522,259.919 207.386,260.211 207.678 C 260.829 208.296,273.083 206.326,279.600 204.561 C 288.933 202.033,311.067 202.033,320.400 204.561 C 326.917 206.326,339.171 208.296,339.789 207.678 C 340.081 207.386,334.749 204.522,333.600 204.354 C 331.576 204.056,324.631 201.466,322.400 200.176 C 315.267 196.053,296.482 194.721,285.057 197.529 M148.800 209.600 C 149.821 210.260,149.827 210.377,148.840 210.388 C 147.983 210.397,147.914 210.634,148.577 211.297 C 149.071 211.791,149.382 212.601,149.269 213.097 C 149.155 213.594,149.206 213.750,149.383 213.445 C 149.559 213.140,150.220 213.088,150.852 213.331 C 151.483 213.573,152.000 213.373,152.000 212.886 C 152.000 212.399,151.676 212.090,151.280 212.200 C 150.884 212.310,150.524 212.130,150.480 211.800 C 150.252 210.090,150.512 209.600,151.647 209.600 C 152.333 209.600,152.672 209.960,152.400 210.400 C 152.128 210.840,152.308 211.200,152.800 211.200 C 153.292 211.200,153.518 211.485,153.303 211.833 C 153.088 212.181,154.104 212.326,155.562 212.156 C 158.319 211.834,160.081 213.091,157.995 213.891 C 157.338 214.143,156.794 213.911,156.788 213.375 C 156.779 212.680,156.581 212.706,156.098 213.468 C 155.726 214.056,155.101 214.596,154.711 214.668 C 154.320 214.741,154.105 215.114,154.233 215.498 C 154.361 215.882,153.892 215.976,153.191 215.707 C 152.453 215.424,152.123 215.551,152.406 216.009 C 152.674 216.444,153.401 216.800,154.019 216.800 C 155.277 216.800,156.800 219.207,156.800 221.195 C 156.800 221.971,156.398 222.291,155.800 221.988 C 155.250 221.709,155.499 222.048,156.353 222.741 C 157.207 223.433,157.477 224.000,156.953 224.000 C 156.429 224.000,156.000 224.381,156.000 224.847 C 156.000 225.313,156.335 225.487,156.745 225.234 C 157.154 224.981,157.721 225.149,158.004 225.607 C 158.287 226.065,158.042 226.341,157.459 226.220 C 156.809 226.085,156.437 226.695,156.496 227.800 C 156.548 228.790,156.140 229.600,155.589 229.600 C 154.268 229.600,153.509 232.596,154.685 233.171 C 155.188 233.416,154.757 233.459,153.726 233.265 C 151.885 232.917,151.878 232.940,153.326 234.591 C 154.634 236.082,154.647 236.216,153.441 235.776 C 151.983 235.246,152.314 237.483,153.844 238.511 C 154.263 238.791,154.334 239.460,154.002 239.996 C 153.539 240.746,153.241 240.720,152.712 239.885 C 152.252 239.159,152.020 239.115,152.012 239.753 C 152.006 240.277,152.361 240.929,152.802 241.201 C 153.337 241.532,153.330 242.209,152.784 243.231 C 152.106 244.497,152.192 244.676,153.274 244.261 C 154.929 243.626,154.030 247.226,152.278 248.249 C 151.667 248.606,151.360 249.211,151.596 249.594 C 151.833 249.976,151.660 250.516,151.213 250.792 C 150.766 251.068,150.425 251.903,150.456 252.647 C 150.502 253.750,150.640 253.704,151.200 252.400 C 151.578 251.520,151.913 251.274,151.944 251.853 C 152.038 253.609,150.375 256.079,149.474 255.522 C 148.926 255.183,148.818 255.597,149.168 256.700 C 149.531 257.844,149.363 258.404,148.654 258.412 C 147.849 258.422,147.872 258.597,148.749 259.151 C 149.579 259.677,149.664 260.172,149.056 260.939 C 148.324 261.861,148.292 263.488,148.918 267.834 C 149.003 268.428,149.607 268.663,150.333 268.387 C 151.311 268.015,151.384 268.123,150.654 268.859 C 149.304 270.219,147.101 269.188,147.749 267.499 C 148.116 266.543,147.977 266.320,147.281 266.750 C 146.737 267.086,146.484 267.865,146.720 268.481 C 147.288 269.960,146.056 269.914,144.807 268.409 C 143.646 267.010,142.097 267.657,142.720 269.281 C 142.957 269.896,142.780 270.400,142.328 270.400 C 141.876 270.400,141.728 270.760,142.000 271.200 C 142.272 271.640,142.190 272.000,141.819 272.000 C 141.447 272.000,141.143 272.747,141.143 273.660 C 141.143 274.959,141.542 275.245,142.971 274.971 C 143.977 274.779,144.800 274.900,144.800 275.240 C 144.800 275.897,146.270 275.838,147.600 275.128 C 148.783 274.497,153.226 275.161,154.925 276.224 C 155.544 276.611,155.718 276.294,155.449 275.266 C 155.228 274.422,155.431 273.071,155.899 272.265 C 156.453 271.312,156.760 271.184,156.776 271.898 C 156.795 272.791,157.028 272.807,158.019 271.984 C 158.905 271.249,160.709 271.135,164.619 271.567 C 167.579 271.893,170.630 272.078,171.400 271.977 C 173.275 271.732,226.818 271.741,228.600 271.987 C 229.370 272.094,232.211 271.913,234.914 271.585 C 241.112 270.835,245.079 272.228,244.564 274.976 C 244.381 275.952,244.539 276.561,244.916 276.329 C 245.292 276.096,245.600 276.308,245.600 276.800 C 245.600 277.292,245.985 277.457,246.455 277.166 C 246.925 276.876,247.106 276.110,246.859 275.464 C 246.553 274.668,247.077 274.816,248.490 275.928 C 249.972 277.094,250.962 277.356,251.929 276.838 C 252.675 276.439,253.769 276.410,254.358 276.774 C 255.218 277.305,259.507 276.476,260.659 275.556 C 260.801 275.442,260.342 274.235,259.638 272.874 C 258.935 271.513,258.592 270.400,258.877 270.400 C 259.163 270.400,258.995 269.917,258.505 269.326 C 258.015 268.736,257.851 268.016,258.140 267.726 C 258.430 267.437,258.225 267.200,257.686 267.200 C 257.147 267.200,256.928 266.840,257.200 266.400 C 257.472 265.960,257.313 265.600,256.847 265.600 C 256.381 265.600,256.000 265.219,256.000 264.753 C 256.000 264.287,256.360 264.128,256.800 264.400 C 257.240 264.672,257.600 264.513,257.600 264.047 C 257.600 262.824,256.356 263.007,255.200 264.400 C 254.512 265.229,254.482 265.600,255.102 265.600 C 255.596 265.600,255.989 266.230,255.976 267.000 C 255.953 268.333,255.913 268.333,255.136 267.000 C 254.687 266.230,253.708 265.594,252.960 265.588 C 251.882 265.578,251.827 265.432,252.696 264.881 C 253.581 264.321,253.504 264.020,252.296 263.318 C 251.167 262.662,251.095 262.436,252.000 262.396 C 252.747 262.363,252.475 261.941,251.279 261.279 C 249.444 260.262,249.426 260.175,250.879 259.332 C 251.716 258.846,251.950 258.438,251.400 258.424 C 250.850 258.411,250.400 257.839,250.400 257.153 C 250.400 256.467,250.088 256.099,249.706 256.335 C 249.324 256.571,249.054 255.962,249.106 254.982 C 249.162 253.911,248.786 253.285,248.161 253.413 C 247.390 253.571,247.258 252.902,247.650 250.813 C 247.969 249.115,247.860 248.000,247.376 248.000 C 246.219 248.000,245.362 243.918,246.318 242.962 C 246.861 242.419,246.831 241.605,246.227 240.477 C 245.734 239.555,245.426 238.620,245.544 238.400 C 245.661 238.180,246.082 237.395,246.477 236.656 C 246.963 235.748,246.826 234.940,246.054 234.168 C 245.312 233.426,245.004 231.795,245.176 229.513 C 245.321 227.581,245.271 226.810,245.064 227.800 C 244.858 228.790,244.401 229.600,244.049 229.600 C 243.696 229.600,243.452 228.790,243.504 227.800 C 243.563 226.695,243.191 226.085,242.541 226.220 C 241.958 226.341,241.713 226.065,241.996 225.607 C 242.279 225.149,242.846 224.981,243.255 225.234 C 243.665 225.487,244.000 225.313,244.000 224.847 C 244.000 224.381,243.571 224.000,243.047 224.000 C 242.523 224.000,242.793 223.433,243.647 222.741 C 244.501 222.048,244.750 221.709,244.200 221.988 C 243.602 222.291,243.200 221.971,243.200 221.195 C 243.200 219.207,244.723 216.800,245.981 216.800 C 246.599 216.800,247.326 216.444,247.594 216.009 C 247.877 215.551,247.547 215.424,246.809 215.707 C 246.108 215.976,245.639 215.882,245.767 215.498 C 245.895 215.114,245.680 214.741,245.289 214.668 C 244.899 214.596,244.274 214.056,243.902 213.468 C 243.419 212.706,243.221 212.680,243.212 213.375 C 243.206 213.911,242.662 214.143,242.005 213.891 C 239.919 213.091,241.681 211.834,244.438 212.156 C 245.896 212.326,246.912 212.181,246.697 211.833 C 246.482 211.485,246.708 211.200,247.200 211.200 C 247.692 211.200,247.872 210.840,247.600 210.400 C 247.328 209.960,247.667 209.600,248.353 209.600 C 249.514 209.600,249.878 210.366,249.400 211.800 C 249.290 212.130,248.930 212.310,248.600 212.200 C 248.270 212.090,248.000 212.399,248.000 212.886 C 248.000 213.373,248.517 213.573,249.148 213.331 C 249.780 213.088,250.441 213.140,250.617 213.445 C 250.794 213.750,250.845 213.594,250.731 213.097 C 250.618 212.601,250.929 211.791,251.423 211.297 C 252.086 210.634,252.017 210.397,251.160 210.388 C 250.173 210.377,250.179 210.260,251.200 209.600 C 252.954 208.467,249.249 208.559,245.200 209.750 C 243.440 210.268,241.703 210.617,241.341 210.526 C 240.978 210.435,240.909 210.729,241.188 211.180 C 241.466 211.631,241.302 212.000,240.822 212.000 C 240.270 212.000,240.074 213.343,240.288 215.658 L 240.627 219.316 238.519 217.458 L 236.411 215.600 238.006 217.600 C 238.883 218.700,239.960 219.897,240.400 220.261 C 240.875 220.654,240.713 220.779,240.000 220.569 C 239.340 220.375,238.170 220.540,237.400 220.936 C 236.436 221.432,236.000 221.351,236.000 220.675 C 236.000 220.136,235.490 220.392,234.866 221.245 C 234.010 222.416,233.952 223.090,234.631 223.998 C 235.126 224.659,234.142 223.940,232.445 222.400 C 230.748 220.860,229.612 220.045,229.920 220.589 C 230.325 221.303,229.802 221.499,228.040 221.294 C 226.698 221.138,225.600 221.300,225.600 221.655 C 225.600 222.010,224.970 222.295,224.200 222.289 C 221.833 222.270,218.787 222.866,217.643 223.574 C 216.899 224.033,216.738 223.947,217.137 223.301 C 217.563 222.613,216.997 222.489,215.061 222.846 C 211.462 223.509,184.906 223.572,184.253 222.920 C 183.364 222.031,182.275 222.350,182.876 223.324 C 183.261 223.946,183.092 224.028,182.357 223.574 C 181.758 223.203,180.403 222.808,179.346 222.695 C 178.289 222.583,177.246 222.313,177.030 222.096 C 176.813 221.879,175.752 222.038,174.672 222.449 C 173.304 222.969,172.870 222.934,173.242 222.332 C 173.579 221.786,173.083 221.567,171.887 221.735 C 170.546 221.923,170.075 221.653,170.259 220.800 C 170.401 220.140,169.157 220.860,167.494 222.400 C 165.830 223.940,164.874 224.659,165.369 223.998 C 166.808 222.073,164.826 219.736,163.216 221.459 C 162.186 222.562,162.223 222.639,163.539 222.134 C 164.796 221.652,164.871 221.751,164.023 222.773 C 162.699 224.367,161.398 223.498,162.046 221.454 C 162.486 220.068,162.294 219.917,160.679 220.373 C 159.646 220.666,159.160 220.611,159.600 220.252 C 160.040 219.894,160.934 218.880,161.586 218.000 C 162.747 216.434,162.736 216.431,161.074 217.845 L 159.376 219.289 159.713 215.645 C 159.926 213.340,159.729 212.000,159.178 212.000 C 158.698 212.000,158.534 211.631,158.812 211.180 C 159.091 210.729,159.022 210.435,158.659 210.526 C 158.297 210.617,156.560 210.268,154.800 209.750 C 150.751 208.559,147.046 208.467,148.800 209.600 M144.200 210.151 C 144.970 210.353,145.600 210.872,145.600 211.306 C 145.600 211.740,145.184 211.838,144.676 211.524 C 144.117 211.178,143.969 211.303,144.302 211.841 C 144.604 212.330,145.389 212.524,146.046 212.272 C 147.600 211.675,146.004 209.557,144.102 209.693 C 143.004 209.771,143.019 209.843,144.200 210.151 M253.678 210.707 C 252.970 211.559,253.034 211.919,253.954 212.272 C 254.611 212.524,255.396 212.330,255.698 211.841 C 256.031 211.303,255.883 211.178,255.324 211.524 C 254.816 211.838,254.400 211.740,254.400 211.306 C 254.400 210.872,255.030 210.353,255.800 210.151 C 256.981 209.843,256.996 209.771,255.898 209.693 C 255.182 209.642,254.183 210.098,253.678 210.707 M159.033 216.474 C 159.162 216.543,158.380 216.600,157.297 216.600 C 155.937 216.600,155.460 216.253,155.757 215.480 C 156.104 214.574,156.438 214.550,157.493 215.353 C 158.212 215.900,158.905 216.404,159.033 216.474 M244.251 215.500 C 244.538 216.248,244.049 216.600,242.720 216.600 C 240.916 216.600,240.876 216.518,242.184 215.525 C 243.937 214.195,243.751 214.197,244.251 215.500 M238.400 222.524 C 238.400 223.681,236.962 223.959,236.135 222.963 C 235.498 222.196,235.674 221.943,236.844 221.943 C 237.700 221.943,238.400 222.204,238.400 222.524 M145.600 271.143 C 145.600 271.614,146.320 272.000,147.200 272.000 C 148.871 272.000,149.357 273.161,148.029 273.982 C 147.027 274.601,143.710 271.277,143.418 269.361 C 143.216 268.039,143.323 268.009,144.396 269.081 C 145.058 269.744,145.600 270.671,145.600 271.143 M151.901 271.661 C 152.460 271.316,152.603 271.583,152.292 272.392 C 151.658 274.045,150.070 273.507,149.757 271.534 C 149.570 270.356,149.689 270.256,150.268 271.102 C 150.682 271.709,151.417 271.960,151.901 271.661 M159.809 272.566 C 160.804 272.757,162.244 272.750,163.009 272.550 C 163.774 272.349,162.960 272.193,161.200 272.202 C 159.440 272.211,158.814 272.374,159.809 272.566 M237.409 272.566 C 238.404 272.757,239.844 272.750,240.609 272.550 C 241.374 272.349,240.560 272.193,238.800 272.202 C 237.040 272.211,236.414 272.374,237.409 272.566 M158.141 274.722 C 157.362 276.752,158.322 276.800,199.973 276.800 C 241.462 276.800,243.200 276.691,243.200 274.087 C 243.200 273.651,242.750 273.907,242.200 274.656 C 241.277 275.914,238.003 276.002,199.600 275.802 L 158.000 275.585 199.800 275.393 C 227.005 275.267,241.600 274.921,241.600 274.400 C 241.600 273.010,158.675 273.329,158.141 274.722 M156.276 277.800 C 156.072 278.130,175.787 278.400,200.086 278.400 C 224.385 278.400,244.080 278.214,243.853 277.986 C 243.189 277.322,156.685 277.138,156.276 277.800 M157.200 280.000 C 157.520 280.517,172.659 280.800,200.000 280.800 C 227.341 280.800,242.480 280.517,242.800 280.000 C 243.127 279.470,228.659 279.200,200.000 279.200 C 171.341 279.200,156.873 279.470,157.200 280.000 M158.400 284.000 C 158.400 284.523,172.800 284.800,200.000 284.800 C 227.200 284.800,241.600 284.523,241.600 284.000 C 241.600 283.477,227.200 283.200,200.000 283.200 C 172.800 283.200,158.400 283.477,158.400 284.000 M158.400 286.800 C 158.400 287.851,163.556 288.000,200.000 288.000 C 236.444 288.000,241.600 287.851,241.600 286.800 C 241.600 285.749,236.444 285.600,200.000 285.600 C 163.556 285.600,158.400 285.749,158.400 286.800 M28.063 348.092 C 27.910 351.220,34.194 356.100,38.174 355.944 C 38.958 355.914,37.911 355.369,35.847 354.734 C 32.343 353.656,29.826 351.324,28.577 348.000 C 28.197 346.989,28.116 347.004,28.063 348.092 M171.263 347.877 C 171.117 350.363,167.772 353.623,164.153 354.804 C 161.167 355.779,160.963 355.942,163.158 355.603 C 167.793 354.887,172.765 350.380,171.738 347.826 C 171.416 347.024,171.313 347.035,171.263 347.877 M228.063 348.092 C 227.910 351.220,234.194 356.100,238.174 355.944 C 238.958 355.914,237.911 355.369,235.847 354.734 C 232.343 353.656,229.826 351.324,228.577 348.000 C 228.197 346.989,228.116 347.004,228.063 348.092 M371.263 347.877 C 371.117 350.363,367.772 353.623,364.153 354.804 C 361.167 355.779,360.963 355.942,363.158 355.603 C 367.793 354.887,372.765 350.380,371.738 347.826 C 371.416 347.024,371.313 347.035,371.263 347.877 M75.800 357.400 C 89.110 357.523,110.890 357.523,124.200 357.400 C 137.510 357.276,126.620 357.176,100.000 357.176 C 73.380 357.176,62.490 357.276,75.800 357.400 M275.800 357.400 C 289.110 357.523,310.890 357.523,324.200 357.400 C 337.510 357.276,326.620 357.176,300.000 357.176 C 273.380 357.176,262.490 357.276,275.800 357.400 " stroke="none" fill="#808000" fill-rule="evenodd"></path><path id="path4" d="M158.843 142.330 C 158.559 142.790,158.638 143.804,159.019 144.583 C 159.400 145.363,159.799 148.700,159.906 152.000 C 160.013 155.300,160.616 159.535,161.245 161.412 C 164.886 172.269,164.789 200.411,161.091 206.054 C 160.167 207.464,160.136 207.912,160.945 208.182 C 161.509 208.370,160.356 208.582,158.385 208.653 C 153.628 208.825,150.400 209.557,150.400 210.464 C 150.400 212.028,150.585 212.393,151.280 212.200 C 151.676 212.090,152.000 212.399,152.000 212.886 C 152.000 213.373,151.483 213.573,150.852 213.331 C 150.220 213.088,149.559 213.140,149.383 213.445 C 149.206 213.750,149.168 213.562,149.296 213.026 C 149.425 212.490,149.147 211.815,148.680 211.526 C 148.114 211.176,148.193 210.769,148.915 210.312 C 150.764 209.141,146.225 209.532,144.061 210.731 C 142.995 211.321,142.037 212.390,141.931 213.106 C 141.826 213.822,142.075 214.201,142.483 213.949 C 142.892 213.696,143.022 213.158,142.771 212.754 C 142.520 212.347,142.930 212.254,143.690 212.545 C 144.695 212.931,144.887 212.788,144.408 212.012 C 143.972 211.307,144.062 211.144,144.676 211.524 C 145.184 211.838,145.600 211.692,145.600 211.200 C 145.600 210.708,146.006 210.556,146.502 210.863 C 147.076 211.218,146.639 211.884,145.302 212.695 C 143.152 214.000,142.931 214.889,143.178 221.266 C 143.255 223.266,142.691 225.591,141.720 227.266 C 140.000 230.235,139.776 230.985,135.650 247.600 C 133.560 256.018,132.837 260.717,132.740 266.516 C 132.588 275.549,132.999 275.119,122.400 277.360 C 114.126 279.109,85.946 279.359,80.000 277.735 C 78.020 277.195,73.160 276.540,69.200 276.280 C 65.240 276.020,61.490 275.533,60.867 275.198 C 60.244 274.862,58.689 274.888,57.412 275.254 C 56.134 275.620,52.954 275.997,50.345 276.091 C 47.735 276.186,45.600 276.585,45.600 276.978 C 45.600 277.372,45.265 277.487,44.855 277.234 C 43.469 276.378,41.993 283.174,42.126 289.800 C 42.165 291.716,41.850 292.013,39.685 292.103 C 29.162 292.540,27.367 293.162,26.631 296.631 C 25.786 300.606,25.821 338.160,26.672 341.200 C 27.041 342.520,27.401 344.320,27.472 345.200 C 27.542 346.080,27.780 346.980,28.000 347.200 C 29.244 348.444,31.071 352.662,30.579 353.154 C 30.261 353.473,30.360 353.638,30.800 353.521 C 31.763 353.266,38.455 355.224,39.644 356.109 C 40.748 356.930,159.252 356.930,160.356 356.109 C 161.545 355.224,168.237 353.266,169.200 353.521 C 169.640 353.638,169.739 353.473,169.421 353.154 C 168.929 352.662,170.756 348.444,172.000 347.200 C 172.220 346.980,172.456 346.080,172.524 345.200 C 172.592 344.320,172.930 342.700,173.276 341.600 C 174.099 338.983,174.666 306.452,173.985 300.893 C 173.219 294.635,171.431 293.160,163.739 292.439 C 148.999 291.057,160.692 290.400,200.000 290.400 C 239.308 290.400,251.001 291.057,236.261 292.439 C 228.569 293.160,226.781 294.635,226.015 300.893 C 225.334 306.452,225.901 338.983,226.724 341.600 C 227.070 342.700,227.408 344.320,227.476 345.200 C 227.544 346.080,227.780 346.980,228.000 347.200 C 229.244 348.444,231.071 352.662,230.579 353.154 C 230.261 353.473,230.360 353.638,230.800 353.521 C 231.763 353.266,238.455 355.224,239.644 356.109 C 240.748 356.930,359.252 356.930,360.356 356.109 C 361.545 355.224,368.237 353.266,369.200 353.521 C 369.640 353.638,369.739 353.473,369.421 353.154 C 368.929 352.662,370.756 348.444,372.000 347.200 C 372.220 346.980,372.458 346.080,372.528 345.200 C 372.599 344.320,372.959 342.520,373.328 341.200 C 374.179 338.160,374.214 300.606,373.369 296.631 C 372.633 293.162,370.838 292.540,360.315 292.103 C 358.150 292.013,357.835 291.716,357.874 289.800 C 358.007 283.174,356.531 276.378,355.145 277.234 C 354.735 277.487,354.400 277.372,354.400 276.978 C 354.400 276.585,352.265 276.186,349.655 276.091 C 347.046 275.997,343.866 275.620,342.588 275.254 C 341.311 274.888,339.756 274.862,339.133 275.198 C 338.510 275.533,334.760 276.020,330.800 276.280 C 326.840 276.540,321.980 277.195,320.000 277.735 C 307.010 281.282,267.319 277.636,267.314 272.896 C 267.296 258.554,262.149 233.306,257.864 226.541 C 257.216 225.519,256.745 223.179,256.817 221.341 C 257.070 214.886,256.854 214.003,254.698 212.695 C 253.361 211.884,252.924 211.218,253.498 210.863 C 253.994 210.556,254.400 210.708,254.400 211.200 C 254.400 211.692,254.816 211.838,255.324 211.524 C 255.938 211.144,256.028 211.307,255.592 212.012 C 255.113 212.788,255.305 212.931,256.310 212.545 C 257.070 212.254,257.480 212.347,257.229 212.754 C 256.978 213.158,257.108 213.696,257.517 213.949 C 257.925 214.201,258.174 213.822,258.069 213.106 C 257.963 212.390,257.005 211.321,255.939 210.731 C 253.775 209.532,249.236 209.141,251.085 210.312 C 251.807 210.769,251.886 211.176,251.320 211.526 C 250.853 211.815,250.575 212.490,250.704 213.026 C 250.832 213.562,250.794 213.750,250.617 213.445 C 250.441 213.140,249.780 213.088,249.148 213.331 C 248.517 213.573,248.000 213.373,248.000 212.886 C 248.000 212.399,248.270 212.090,248.600 212.200 C 249.216 212.405,249.600 211.747,249.600 210.487 C 249.600 208.822,234.684 208.057,225.200 209.235 C 223.440 209.454,219.129 209.985,215.621 210.416 C 206.433 211.545,192.993 211.381,181.970 210.006 C 176.706 209.350,170.087 208.810,167.261 208.806 L 162.121 208.800 163.879 206.929 C 168.266 202.259,167.797 170.010,163.207 160.800 C 162.440 159.260,161.600 155.480,161.342 152.400 C 160.525 142.644,159.987 140.479,158.843 142.330 M239.898 142.040 C 239.842 142.458,239.679 143.520,239.535 144.400 C 239.392 145.280,239.054 148.700,238.784 152.000 C 238.497 155.510,237.659 159.195,236.763 160.880 C 233.731 166.586,232.652 173.882,233.175 185.159 C 234.018 203.327,234.254 205.057,236.101 206.600 C 238.665 208.742,240.354 208.500,238.897 206.200 C 235.255 200.449,234.580 173.590,237.836 163.964 C 239.138 160.112,239.951 155.770,240.083 151.964 C 240.196 148.684,240.617 145.331,241.018 144.514 C 241.488 143.558,241.437 142.717,240.874 142.154 C 240.383 141.663,239.955 141.613,239.898 142.040 M87.600 202.877 C 77.110 205.380,71.615 206.565,67.600 207.190 C 63.034 207.900,63.125 207.917,69.461 207.544 C 73.124 207.329,78.704 206.561,81.861 205.838 C 85.859 204.923,91.362 204.524,100.000 204.524 C 108.638 204.524,114.141 204.923,118.139 205.838 C 121.296 206.561,126.876 207.337,130.539 207.563 L 137.200 207.974 130.800 206.889 C 127.280 206.292,122.240 205.181,119.600 204.420 C 114.915 203.070,91.519 201.942,87.600 202.877 M287.600 202.877 C 277.110 205.380,271.615 206.565,267.600 207.190 C 263.034 207.900,263.125 207.917,269.461 207.544 C 273.124 207.329,278.704 206.561,281.861 205.838 C 285.859 204.923,291.362 204.524,300.000 204.524 C 308.638 204.524,314.141 204.923,318.139 205.838 C 321.296 206.561,326.876 207.337,330.539 207.563 L 337.200 207.974 330.800 206.889 C 327.280 206.292,322.240 205.181,319.600 204.420 C 314.915 203.070,291.519 201.942,287.600 202.877 M158.165 210.565 C 158.695 210.621,158.944 210.967,158.718 211.333 C 158.491 211.700,158.698 212.000,159.178 212.000 C 159.729 212.000,159.926 213.340,159.713 215.645 L 159.376 219.289 161.074 217.845 C 162.736 216.431,162.747 216.434,161.586 218.000 C 160.934 218.880,160.040 219.894,159.600 220.252 C 159.160 220.611,159.646 220.666,160.679 220.373 C 162.294 219.917,162.486 220.068,162.046 221.454 C 161.398 223.498,162.699 224.367,164.023 222.773 C 164.871 221.751,164.796 221.652,163.539 222.134 C 162.223 222.639,162.186 222.562,163.216 221.459 C 164.826 219.736,166.808 222.073,165.369 223.998 C 164.874 224.659,165.830 223.940,167.494 222.400 C 169.157 220.860,170.401 220.140,170.259 220.800 C 170.075 221.653,170.546 221.923,171.887 221.735 C 173.083 221.567,173.579 221.786,173.242 222.332 C 172.870 222.934,173.304 222.969,174.672 222.449 C 175.752 222.038,176.813 221.879,177.030 222.096 C 177.246 222.313,178.289 222.583,179.346 222.695 C 180.403 222.808,181.758 223.203,182.357 223.574 C 183.092 224.028,183.261 223.946,182.876 223.324 C 182.275 222.350,183.364 222.031,184.253 222.920 C 184.906 223.572,211.462 223.509,215.061 222.846 C 216.997 222.489,217.563 222.613,217.137 223.301 C 216.738 223.947,216.899 224.033,217.643 223.574 C 218.787 222.866,221.833 222.270,224.200 222.289 C 224.970 222.295,225.600 222.010,225.600 221.655 C 225.600 221.300,226.698 221.138,228.040 221.294 C 229.802 221.499,230.325 221.303,229.920 220.589 C 229.612 220.045,230.748 220.860,232.445 222.400 C 234.142 223.940,235.126 224.659,234.631 223.998 C 233.952 223.090,234.010 222.416,234.866 221.245 C 235.490 220.392,236.000 220.136,236.000 220.675 C 236.000 221.351,236.436 221.432,237.400 220.936 C 238.170 220.540,239.340 220.375,240.000 220.569 C 240.713 220.779,240.875 220.654,240.400 220.261 C 239.960 219.897,238.883 218.700,238.006 217.600 L 236.411 215.600 238.519 217.458 L 240.627 219.316 240.288 215.658 C 240.074 213.343,240.270 212.000,240.822 212.000 C 241.302 212.000,241.466 211.631,241.188 211.180 C 240.909 210.729,240.978 210.428,241.341 210.511 C 241.703 210.594,243.016 210.378,244.259 210.030 C 245.685 209.630,246.849 209.729,247.419 210.299 C 248.087 210.967,248.060 211.200,247.313 211.200 C 246.759 211.200,246.482 211.485,246.697 211.833 C 246.912 212.181,245.896 212.326,244.438 212.156 C 241.681 211.834,239.919 213.091,242.005 213.891 C 242.662 214.143,243.206 213.911,243.212 213.375 C 243.221 212.680,243.419 212.706,243.902 213.468 C 244.274 214.056,244.899 214.596,245.289 214.668 C 245.680 214.741,245.895 215.114,245.767 215.498 C 245.639 215.882,246.108 215.976,246.809 215.707 C 247.547 215.424,247.877 215.551,247.594 216.009 C 247.326 216.444,246.599 216.800,245.981 216.800 C 244.723 216.800,243.200 219.207,243.200 221.195 C 243.200 221.971,243.602 222.291,244.200 221.988 C 244.750 221.709,244.501 222.048,243.647 222.741 C 242.793 223.433,242.523 224.000,243.047 224.000 C 243.571 224.000,244.000 224.381,244.000 224.847 C 244.000 225.313,243.665 225.487,243.255 225.234 C 242.846 224.981,242.279 225.149,241.996 225.607 C 241.713 226.065,241.958 226.341,242.541 226.220 C 243.191 226.085,243.563 226.695,243.504 227.800 C 243.452 228.790,243.696 229.600,244.049 229.600 C 244.401 229.600,244.858 228.790,245.064 227.800 C 245.271 226.810,245.321 227.581,245.176 229.513 C 245.004 231.795,245.312 233.426,246.054 234.168 C 246.826 234.940,246.963 235.748,246.477 236.656 C 245.580 238.332,245.572 239.253,246.441 240.877 C 246.844 241.630,246.794 242.486,246.318 242.962 C 245.362 243.918,246.219 248.000,247.376 248.000 C 247.860 248.000,247.969 249.115,247.650 250.813 C 247.258 252.902,247.390 253.571,248.161 253.413 C 248.786 253.285,249.162 253.911,249.106 254.982 C 249.054 255.962,249.324 256.571,249.706 256.335 C 250.088 256.099,250.400 256.467,250.400 257.153 C 250.400 257.839,250.850 258.411,251.400 258.424 C 251.950 258.438,251.716 258.846,250.879 259.332 C 249.426 260.175,249.444 260.262,251.279 261.279 C 252.475 261.941,252.747 262.363,252.000 262.396 C 251.095 262.436,251.167 262.662,252.296 263.318 C 253.504 264.020,253.581 264.321,252.696 264.881 C 251.827 265.432,251.882 265.578,252.960 265.588 C 253.708 265.594,254.687 266.230,255.136 267.000 C 255.913 268.333,255.953 268.333,255.976 267.000 C 255.989 266.230,255.596 265.600,255.102 265.600 C 254.482 265.600,254.512 265.229,255.200 264.400 C 256.356 263.007,257.600 262.824,257.600 264.047 C 257.600 264.513,257.240 264.672,256.800 264.400 C 256.360 264.128,256.000 264.287,256.000 264.753 C 256.000 265.219,256.381 265.600,256.847 265.600 C 257.313 265.600,257.472 265.960,257.200 266.400 C 256.928 266.840,257.147 267.200,257.686 267.200 C 258.225 267.200,258.430 267.437,258.140 267.726 C 257.851 268.016,258.015 268.736,258.505 269.326 C 258.995 269.917,259.163 270.400,258.877 270.400 C 258.592 270.400,258.935 271.513,259.638 272.874 C 260.342 274.235,260.801 275.442,260.659 275.556 C 259.507 276.476,255.218 277.305,254.358 276.774 C 253.769 276.410,252.675 276.439,251.929 276.838 C 250.962 277.356,249.972 277.094,248.490 275.928 C 247.077 274.816,246.553 274.668,246.859 275.464 C 247.106 276.110,246.925 276.876,246.455 277.166 C 245.985 277.457,245.600 277.292,245.600 276.800 C 245.600 276.308,245.292 276.096,244.916 276.329 C 244.539 276.561,244.381 275.952,244.564 274.976 C 245.079 272.228,241.112 270.835,234.914 271.585 C 232.211 271.913,229.370 272.094,228.600 271.987 C 226.818 271.741,173.275 271.732,171.400 271.977 C 170.630 272.078,167.579 271.893,164.619 271.567 C 160.709 271.135,158.905 271.249,158.019 271.984 C 157.028 272.807,156.795 272.791,156.776 271.898 C 156.760 271.184,156.453 271.312,155.899 272.265 C 155.431 273.071,155.228 274.422,155.449 275.266 C 155.718 276.294,155.544 276.611,154.925 276.224 C 153.226 275.161,148.783 274.497,147.600 275.128 C 146.270 275.838,144.800 275.897,144.800 275.240 C 144.800 274.900,143.977 274.779,142.971 274.971 C 141.542 275.245,141.143 274.959,141.143 273.660 C 141.143 272.747,141.447 272.000,141.819 272.000 C 142.190 272.000,142.272 271.640,142.000 271.200 C 141.728 270.760,141.876 270.400,142.328 270.400 C 142.780 270.400,142.957 269.896,142.720 269.281 C 142.097 267.657,143.646 267.010,144.807 268.409 C 146.056 269.914,147.288 269.960,146.720 268.481 C 146.484 267.865,146.737 267.086,147.281 266.750 C 147.977 266.320,148.116 266.543,147.749 267.499 C 147.101 269.188,149.304 270.219,150.654 268.859 C 151.384 268.123,151.311 268.015,150.333 268.387 C 149.607 268.663,149.003 268.428,148.918 267.834 C 148.292 263.488,148.324 261.861,149.056 260.939 C 149.664 260.172,149.579 259.677,148.749 259.151 C 147.872 258.597,147.849 258.422,148.654 258.412 C 149.363 258.404,149.531 257.844,149.168 256.700 C 148.818 255.597,148.926 255.183,149.474 255.522 C 150.375 256.079,152.038 253.609,151.944 251.853 C 151.913 251.274,151.578 251.520,151.200 252.400 C 150.640 253.704,150.502 253.750,150.456 252.647 C 150.425 251.903,150.766 251.068,151.213 250.792 C 151.660 250.516,151.833 249.976,151.596 249.594 C 151.360 249.211,151.667 248.606,152.278 248.249 C 154.030 247.226,154.929 243.626,153.274 244.261 C 152.192 244.676,152.106 244.497,152.784 243.231 C 153.330 242.209,153.337 241.532,152.802 241.201 C 152.361 240.929,152.006 240.277,152.012 239.753 C 152.020 239.115,152.252 239.159,152.712 239.885 C 153.241 240.720,153.539 240.746,154.002 239.996 C 154.334 239.460,154.263 238.791,153.844 238.511 C 152.314 237.483,151.983 235.246,153.441 235.776 C 154.647 236.216,154.634 236.082,153.326 234.591 C 151.878 232.940,151.885 232.917,153.726 233.265 C 154.757 233.459,155.188 233.416,154.685 233.171 C 153.509 232.596,154.268 229.600,155.589 229.600 C 156.140 229.600,156.548 228.790,156.496 227.800 C 156.437 226.695,156.809 226.085,157.459 226.220 C 158.042 226.341,158.287 226.065,158.004 225.607 C 157.721 225.149,157.154 224.981,156.745 225.234 C 156.335 225.487,156.000 225.313,156.000 224.847 C 156.000 224.381,156.429 224.000,156.953 224.000 C 157.477 224.000,157.207 223.433,156.353 222.741 C 155.499 222.048,155.250 221.709,155.800 221.988 C 156.398 222.291,156.800 221.971,156.800 221.195 C 156.800 219.207,155.277 216.800,154.019 216.800 C 153.401 216.800,152.674 216.444,152.406 216.009 C 152.123 215.551,152.453 215.424,153.191 215.707 C 153.892 215.976,154.361 215.828,154.233 215.378 C 154.105 214.928,154.320 214.555,154.711 214.548 C 155.101 214.542,155.726 214.056,156.098 213.468 C 156.581 212.706,156.779 212.680,156.788 213.375 C 156.794 213.911,157.338 214.143,157.995 213.891 C 160.081 213.091,158.319 211.834,155.562 212.156 C 154.104 212.326,153.088 212.181,153.303 211.833 C 153.518 211.485,153.292 211.200,152.800 211.200 C 152.308 211.200,152.149 210.806,152.447 210.325 C 152.757 209.822,153.884 209.665,155.094 209.957 C 156.252 210.236,157.634 210.510,158.165 210.565 M155.757 215.480 C 155.460 216.253,155.937 216.600,157.297 216.600 C 158.380 216.600,159.162 216.543,159.033 216.474 C 158.905 216.404,158.212 215.900,157.493 215.353 C 156.438 214.550,156.104 214.574,155.757 215.480 M242.184 215.525 C 240.876 216.518,240.916 216.600,242.720 216.600 C 244.049 216.600,244.538 216.248,244.251 215.500 C 243.751 214.197,243.937 214.195,242.184 215.525 M236.135 222.963 C 236.600 223.523,237.301 223.785,237.691 223.544 C 238.913 222.788,238.466 221.943,236.844 221.943 C 235.674 221.943,235.498 222.196,236.135 222.963 M143.418 269.361 C 143.710 271.277,147.027 274.601,148.029 273.982 C 149.357 273.161,148.871 272.000,147.200 272.000 C 146.320 272.000,145.600 271.614,145.600 271.143 C 145.600 270.671,145.058 269.744,144.396 269.081 C 143.323 268.009,143.216 268.039,143.418 269.361 M149.757 271.534 C 150.070 273.507,151.658 274.045,152.292 272.392 C 152.603 271.583,152.460 271.316,151.901 271.661 C 151.417 271.960,150.682 271.709,150.268 271.102 C 149.689 270.256,149.570 270.356,149.757 271.534 M163.009 272.550 C 162.244 272.750,160.804 272.757,159.809 272.566 C 158.814 272.374,159.440 272.211,161.200 272.202 C 162.960 272.193,163.774 272.349,163.009 272.550 M240.609 272.550 C 239.844 272.750,238.404 272.757,237.409 272.566 C 236.414 272.374,237.040 272.211,238.800 272.202 C 240.560 272.193,241.374 272.349,240.609 272.550 M241.600 274.400 C 241.600 274.921,227.005 275.267,199.800 275.393 L 158.000 275.585 199.600 275.802 C 238.003 276.002,241.277 275.914,242.200 274.656 C 242.750 273.907,243.200 273.651,243.200 274.087 C 243.200 276.691,241.462 276.800,199.973 276.800 C 158.322 276.800,157.362 276.752,158.141 274.722 C 158.675 273.329,241.600 273.010,241.600 274.400 M243.853 277.986 C 244.080 278.214,224.385 278.400,200.086 278.400 C 175.787 278.400,156.072 278.130,156.276 277.800 C 156.685 277.138,243.189 277.322,243.853 277.986 M242.800 280.000 C 242.480 280.517,227.341 280.800,200.000 280.800 C 172.659 280.800,157.520 280.517,157.200 280.000 C 156.873 279.470,171.341 279.200,200.000 279.200 C 228.659 279.200,243.127 279.470,242.800 280.000 M241.600 284.000 C 241.600 284.523,227.200 284.800,200.000 284.800 C 172.800 284.800,158.400 284.523,158.400 284.000 C 158.400 283.477,172.800 283.200,200.000 283.200 C 227.200 283.200,241.600 283.477,241.600 284.000 M241.600 286.800 C 241.600 287.851,236.444 288.000,200.000 288.000 C 163.556 288.000,158.400 287.851,158.400 286.800 C 158.400 285.749,163.556 285.600,200.000 285.600 C 236.444 285.600,241.600 285.749,241.600 286.800 " stroke="none" fill="#8cc449" fill-rule="evenodd"></path><path id="path5" d="M81.263 43.263 C 77.302 44.234,76.230 45.134,75.596 48.019 C 75.317 49.289,74.416 50.541,73.594 50.802 C 71.610 51.432,67.029 56.702,67.445 57.875 C 67.873 59.084,74.542 58.655,75.362 57.366 C 75.835 56.622,75.978 56.629,75.988 57.400 C 75.994 57.950,76.322 58.400,76.715 58.400 C 77.124 58.400,77.096 57.085,76.650 55.329 C 74.253 45.883,78.799 43.600,100.000 43.600 C 121.201 43.600,125.747 45.883,123.350 55.329 C 122.904 57.085,122.876 58.400,123.285 58.400 C 123.678 58.400,124.006 57.950,124.012 57.400 C 124.022 56.629,124.165 56.622,124.638 57.366 C 125.458 58.655,132.127 59.084,132.555 57.875 C 132.965 56.718,128.402 51.436,126.461 50.819 C 125.669 50.568,124.688 49.201,124.282 47.781 C 122.994 43.283,120.943 42.819,101.600 42.647 C 92.140 42.563,82.988 42.840,81.263 43.263 M281.263 43.263 C 277.302 44.234,276.230 45.134,275.596 48.019 C 275.317 49.289,274.416 50.541,273.594 50.802 C 271.610 51.432,267.029 56.702,267.445 57.875 C 267.873 59.084,274.542 58.655,275.362 57.366 C 275.835 56.622,275.978 56.629,275.988 57.400 C 275.994 57.950,276.322 58.400,276.715 58.400 C 277.124 58.400,277.096 57.085,276.650 55.329 C 274.253 45.883,278.799 43.600,300.000 43.600 C 321.201 43.600,325.747 45.883,323.350 55.329 C 322.904 57.085,322.876 58.400,323.285 58.400 C 323.678 58.400,324.006 57.950,324.012 57.400 C 324.022 56.629,324.165 56.622,324.638 57.366 C 325.458 58.655,332.127 59.084,332.555 57.875 C 332.965 56.718,328.402 51.436,326.461 50.819 C 325.669 50.568,324.688 49.201,324.282 47.781 C 322.994 43.283,320.943 42.819,301.600 42.647 C 292.140 42.563,282.988 42.840,281.263 43.263 M80.763 46.625 C 78.910 48.086,76.796 51.394,76.831 52.778 C 76.849 53.450,77.346 52.889,77.937 51.532 C 78.528 50.175,80.003 48.285,81.214 47.332 C 82.425 46.379,83.097 45.611,82.708 45.625 C 82.319 45.639,81.443 46.089,80.763 46.625 M118.786 47.332 C 119.997 48.285,121.472 50.175,122.063 51.532 C 122.654 52.889,123.151 53.450,123.169 52.778 C 123.224 50.629,119.168 45.693,117.292 45.625 C 116.903 45.611,117.575 46.379,118.786 47.332 M280.763 46.625 C 278.910 48.086,276.796 51.394,276.831 52.778 C 276.849 53.450,277.346 52.889,277.937 51.532 C 278.528 50.175,280.003 48.285,281.214 47.332 C 282.425 46.379,283.097 45.611,282.708 45.625 C 282.319 45.639,281.443 46.089,280.763 46.625 M318.786 47.332 C 319.997 48.285,321.472 50.175,322.063 51.532 C 322.654 52.889,323.151 53.450,323.169 52.778 C 323.224 50.629,319.168 45.693,317.292 45.625 C 316.903 45.611,317.575 46.379,318.786 47.332 M60.000 60.000 C 59.120 60.880,58.406 62.590,58.412 63.800 C 58.421 65.401,58.619 65.693,59.138 64.873 C 59.531 64.252,59.685 63.309,59.480 62.776 C 59.275 62.243,59.715 61.199,60.457 60.457 C 61.199 59.715,62.243 59.275,62.776 59.480 C 63.309 59.685,64.252 59.531,64.873 59.138 C 65.693 58.619,65.401 58.421,63.800 58.412 C 62.590 58.406,60.880 59.120,60.000 60.000 M135.127 59.138 C 135.748 59.531,136.691 59.685,137.224 59.480 C 137.757 59.275,138.801 59.715,139.543 60.457 C 140.285 61.199,140.725 62.243,140.520 62.776 C 140.315 63.309,140.469 64.252,140.862 64.873 C 141.381 65.693,141.579 65.401,141.588 63.800 C 141.603 60.980,139.020 58.397,136.200 58.412 C 134.599 58.421,134.307 58.619,135.127 59.138 M260.000 60.000 C 259.120 60.880,258.406 62.590,258.412 63.800 C 258.421 65.401,258.619 65.693,259.138 64.873 C 259.531 64.252,259.685 63.309,259.480 62.776 C 258.997 61.517,261.517 58.997,262.776 59.480 C 263.309 59.685,264.252 59.531,264.873 59.138 C 265.693 58.619,265.401 58.421,263.800 58.412 C 262.590 58.406,260.880 59.120,260.000 60.000 M335.127 59.138 C 335.748 59.531,336.691 59.685,337.224 59.480 C 338.483 58.997,341.003 61.517,340.520 62.776 C 340.315 63.309,340.469 64.252,340.862 64.873 C 341.381 65.693,341.579 65.401,341.588 63.800 C 341.603 60.980,339.020 58.397,336.200 58.412 C 334.599 58.421,334.307 58.619,335.127 59.138 M54.113 69.608 C 52.553 70.978,51.071 72.747,50.819 73.539 C 50.568 74.331,49.201 75.312,47.781 75.718 C 43.466 76.954,42.859 79.288,42.533 95.912 C 42.053 120.310,42.936 123.009,51.600 123.619 C 56.316 123.952,56.337 123.944,52.801 123.187 C 44.108 121.324,43.005 118.433,43.347 98.400 C 43.679 78.987,46.226 74.340,55.278 76.637 C 57.880 77.298,58.309 77.254,57.601 76.402 C 57.042 75.727,57.018 75.257,57.533 75.078 C 58.696 74.674,59.002 67.844,57.875 67.445 C 57.367 67.264,55.674 68.238,54.113 69.608 M141.208 67.986 C 140.519 69.101,141.656 74.684,142.715 75.388 C 143.331 75.797,143.296 75.979,142.600 75.988 C 142.050 75.994,141.600 76.322,141.600 76.715 C 141.600 77.124,142.915 77.096,144.671 76.650 C 154.063 74.267,156.400 78.840,156.400 99.600 C 156.400 120.013,155.722 121.628,146.503 123.186 L 142.800 123.812 146.226 123.906 C 156.346 124.184,157.200 122.293,157.200 99.600 C 157.200 78.923,156.806 77.032,152.219 75.718 C 150.799 75.312,149.432 74.331,149.181 73.539 C 148.194 70.429,142.255 66.293,141.208 67.986 M254.113 69.608 C 252.553 70.978,251.071 72.747,250.819 73.539 C 250.568 74.331,249.201 75.312,247.781 75.718 C 243.466 76.954,242.859 79.288,242.533 95.912 C 242.053 120.310,242.936 123.009,251.600 123.619 C 256.316 123.952,256.337 123.944,252.801 123.187 C 244.108 121.324,243.005 118.433,243.347 98.400 C 243.679 78.987,246.226 74.340,255.278 76.637 C 257.880 77.298,258.309 77.254,257.601 76.402 C 257.042 75.727,257.018 75.257,257.533 75.078 C 258.696 74.674,259.002 67.844,257.875 67.445 C 257.367 67.264,255.674 68.238,254.113 69.608 M341.208 67.986 C 340.519 69.101,341.656 74.684,342.715 75.388 C 343.331 75.797,343.296 75.979,342.600 75.988 C 342.050 75.994,341.600 76.322,341.600 76.715 C 341.600 77.124,342.915 77.096,344.671 76.650 C 354.063 74.267,356.400 78.840,356.400 99.600 C 356.400 120.013,355.722 121.628,346.503 123.186 L 342.800 123.812 346.226 123.906 C 356.346 124.184,357.200 122.293,357.200 99.600 C 357.200 78.923,356.806 77.032,352.219 75.718 C 350.799 75.312,349.432 74.331,349.181 73.539 C 348.194 70.429,342.255 66.293,341.208 67.986 M49.953 78.044 C 48.425 79.268,48.426 79.276,50.000 78.552 C 50.880 78.147,52.140 77.616,52.800 77.371 C 53.837 76.987,53.830 76.918,52.753 76.863 C 52.067 76.828,50.807 77.360,49.953 78.044 M148.468 77.937 C 149.825 78.528,151.715 80.003,152.668 81.214 C 153.621 82.425,154.389 83.097,154.375 82.708 C 154.307 80.832,149.371 76.776,147.222 76.831 C 146.550 76.849,147.111 77.346,148.468 77.937 M249.953 78.044 C 248.425 79.268,248.426 79.276,250.000 78.552 C 250.880 78.147,252.140 77.616,252.800 77.371 C 253.837 76.987,253.830 76.918,252.753 76.863 C 252.067 76.828,250.807 77.360,249.953 78.044 M348.468 77.937 C 349.825 78.528,351.715 80.003,352.668 81.214 C 353.621 82.425,354.389 83.097,354.375 82.708 C 354.307 80.832,349.371 76.776,347.222 76.831 C 346.550 76.849,347.111 77.346,348.468 77.937 M191.000 125.397 C 195.950 125.538,204.050 125.538,209.000 125.397 C 213.950 125.257,209.900 125.142,200.000 125.142 C 190.100 125.142,186.050 125.257,191.000 125.397 M164.683 126.165 C 161.288 126.687,159.757 129.068,159.507 134.212 C 159.313 138.218,159.361 138.394,159.886 135.600 C 161.133 128.969,163.165 127.251,170.800 126.372 L 175.600 125.819 171.200 125.829 C 168.780 125.835,165.847 125.986,164.683 126.165 M229.200 126.306 C 236.878 127.294,238.872 128.993,240.114 135.600 C 240.633 138.363,240.684 138.165,240.488 134.152 C 240.163 127.520,238.799 126.379,230.726 125.992 C 224.824 125.709,224.722 125.730,229.200 126.306 M53.250 210.369 C 44.727 212.561,43.436 215.048,42.849 230.400 C 42.542 238.427,42.577 238.784,43.129 233.200 C 44.477 219.561,47.644 213.718,54.648 211.955 C 56.652 211.450,58.484 210.534,58.720 209.919 C 58.957 209.303,59.071 208.832,58.975 208.870 C 58.879 208.909,56.302 209.583,53.250 210.369 M141.441 209.725 C 141.748 210.013,143.440 209.954,145.200 209.594 L 148.400 208.938 144.641 209.069 C 142.573 209.141,141.133 209.436,141.441 209.725 M254.800 209.594 C 256.560 209.954,258.252 210.013,258.559 209.725 C 258.867 209.436,257.427 209.141,255.359 209.069 L 251.600 208.938 254.800 209.594 M341.327 210.043 C 341.537 210.590,343.348 211.450,345.352 211.955 C 352.540 213.765,355.600 219.646,356.772 233.900 L 357.372 241.200 357.461 235.200 C 357.643 222.997,355.548 213.899,352.137 212.073 C 349.256 210.531,340.913 208.964,341.327 210.043 M356.647 249.600 C 355.631 263.581,352.594 269.392,345.280 271.348 C 340.439 272.642,340.516 273.944,345.389 273.213 C 354.945 271.781,358.262 264.607,357.442 247.152 C 357.209 242.183,357.180 242.270,356.647 249.600 M42.540 248.800 C 42.242 265.928,45.142 271.794,54.611 273.213 C 59.484 273.944,59.561 272.642,54.720 271.348 C 47.605 269.445,44.388 263.486,43.196 250.000 L 42.630 243.600 42.540 248.800 M49.000 275.751 C 49.770 275.953,51.030 275.953,51.800 275.751 C 52.570 275.550,51.940 275.386,50.400 275.386 C 48.860 275.386,48.230 275.550,49.000 275.751 M348.200 275.751 C 348.970 275.953,350.230 275.953,351.000 275.751 C 351.770 275.550,351.140 275.386,349.600 275.386 C 348.060 275.386,347.430 275.550,348.200 275.751 M43.303 277.076 C 42.811 277.668,42.184 279.278,41.909 280.654 C 41.603 282.186,40.354 283.960,38.688 285.231 C 35.199 287.892,33.008 291.140,34.204 291.879 C 36.153 293.084,42.482 291.919,42.013 290.442 C 41.205 287.897,43.033 278.100,44.519 277.014 C 45.282 276.456,45.521 276.000,45.051 276.000 C 44.581 276.000,43.794 276.484,43.303 277.076 M355.481 277.014 C 356.967 278.100,358.795 287.897,357.987 290.442 C 357.518 291.919,363.847 293.084,365.796 291.879 C 366.992 291.140,364.801 287.892,361.312 285.231 C 359.646 283.960,358.397 282.186,358.091 280.654 C 357.538 277.890,356.262 276.000,354.949 276.000 C 354.479 276.000,354.718 276.456,355.481 277.014 M158.124 291.000 C 157.920 291.330,176.764 291.600,200.000 291.600 C 223.236 291.600,242.080 291.330,241.876 291.000 C 241.672 290.670,222.828 290.400,200.000 290.400 C 177.172 290.400,158.328 290.670,158.124 291.000 M27.200 293.600 C 26.320 294.480,25.632 296.010,25.672 297.000 C 25.728 298.395,25.912 298.220,26.490 296.218 C 27.052 294.276,27.876 293.452,29.818 292.890 C 31.820 292.312,31.995 292.128,30.600 292.072 C 29.610 292.032,28.080 292.720,27.200 293.600 M370.182 292.890 C 372.124 293.452,372.948 294.276,373.510 296.218 C 374.088 298.220,374.272 298.395,374.328 297.000 C 374.368 296.010,373.680 294.480,372.800 293.600 C 371.920 292.720,370.390 292.032,369.400 292.072 C 368.005 292.128,368.180 292.312,370.182 292.890 M171.646 293.935 C 173.321 295.160,174.081 295.025,173.233 293.653 C 172.943 293.184,172.118 292.800,171.400 292.800 C 170.308 292.800,170.348 292.986,171.646 293.935 M226.767 293.653 C 225.919 295.025,226.679 295.160,228.354 293.935 C 229.652 292.986,229.692 292.800,228.600 292.800 C 227.882 292.800,227.057 293.184,226.767 293.653 M25.099 322.000 C 25.101 326.840,25.233 328.717,25.392 326.171 C 25.551 323.625,25.550 319.665,25.389 317.371 C 25.228 315.077,25.097 317.160,25.099 322.000 M174.699 322.000 C 174.701 326.840,174.833 328.717,174.992 326.171 C 175.151 323.625,175.150 319.665,174.989 317.371 C 174.828 315.077,174.697 317.160,174.699 322.000 M225.099 322.000 C 225.101 326.840,225.233 328.717,225.392 326.171 C 225.551 323.625,225.550 319.665,225.389 317.371 C 225.228 315.077,225.097 317.160,225.099 322.000 M374.699 322.000 C 374.701 326.840,374.833 328.717,374.992 326.171 C 375.151 323.625,375.150 319.665,374.989 317.371 C 374.828 315.077,374.697 317.160,374.699 322.000 M26.488 344.984 C 26.278 352.114,29.497 355.881,36.261 356.420 C 38.537 356.601,39.680 356.565,38.800 356.339 C 30.981 354.333,28.554 352.037,27.247 345.408 L 26.575 342.000 26.488 344.984 M172.928 344.347 C 172.578 350.774,169.122 354.306,161.200 356.339 C 160.320 356.565,161.463 356.601,163.739 356.420 C 170.539 355.878,174.205 351.435,173.388 344.727 C 173.077 342.173,173.048 342.149,172.928 344.347 M226.488 344.984 C 226.278 352.114,229.497 355.881,236.261 356.420 C 238.537 356.601,239.680 356.565,238.800 356.339 C 230.981 354.333,228.554 352.037,227.247 345.408 L 226.575 342.000 226.488 344.984 M372.928 344.347 C 372.578 350.774,369.122 354.306,361.200 356.339 C 360.320 356.565,361.463 356.601,363.739 356.420 C 370.539 355.878,374.205 351.435,373.388 344.727 C 373.077 342.173,373.048 342.149,372.928 344.347 M43.400 357.383 C 45.050 357.555,47.750 357.555,49.400 357.383 C 51.050 357.210,49.700 357.069,46.400 357.069 C 43.100 357.069,41.750 357.210,43.400 357.383 M150.600 357.383 C 152.250 357.555,154.950 357.555,156.600 357.383 C 158.250 357.210,156.900 357.069,153.600 357.069 C 150.300 357.069,148.950 357.210,150.600 357.383 M243.400 357.383 C 245.050 357.555,247.750 357.555,249.400 357.383 C 251.050 357.210,249.700 357.069,246.400 357.069 C 243.100 357.069,241.750 357.210,243.400 357.383 M350.600 357.383 C 352.250 357.555,354.950 357.555,356.600 357.383 C 358.250 357.210,356.900 357.069,353.600 357.069 C 350.300 357.069,348.950 357.210,350.600 357.383 " stroke="none" fill="#ffff00" fill-rule="evenodd"></path><path id="path6" d="M355.804 238.000 C 355.594 239.100,355.732 240.000,356.111 240.000 C 356.490 240.000,356.800 239.100,356.800 238.000 C 356.800 236.900,356.662 236.000,356.493 236.000 C 356.325 236.000,356.014 236.900,355.804 238.000 M46.432 260.240 C 46.368 261.526,48.686 265.246,50.518 266.796 L 52.400 268.389 50.697 266.394 C 49.761 265.297,48.425 263.320,47.729 262.000 C 47.033 260.680,46.450 259.888,46.432 260.240 M352.418 261.544 C 352.127 262.460,350.937 264.377,349.773 265.804 C 347.946 268.044,347.910 268.181,349.510 266.802 C 351.514 265.074,353.959 260.892,353.332 260.265 C 353.120 260.053,352.708 260.628,352.418 261.544 " stroke="none" fill="#ffff80" fill-rule="evenodd"></path><path id="path7" d="M53.200 131.088 C 50.004 133.062,48.313 135.056,46.837 138.589 C 45.546 141.678,43.438 142.977,36.800 144.773 C 27.562 147.274,25.301 155.094,25.725 183.079 C 26.101 207.964,25.345 207.044,46.000 207.766 C 58.754 208.213,58.814 208.207,62.589 206.087 C 64.673 204.918,66.653 203.957,66.989 203.952 C 68.611 203.929,75.108 201.617,77.600 200.176 C 81.874 197.705,91.020 196.000,100.000 196.000 C 108.980 196.000,118.126 197.705,122.400 200.176 C 124.853 201.594,132.036 204.143,133.202 204.009 C 133.433 203.982,135.290 204.892,137.329 206.030 C 141.543 208.383,157.878 208.915,158.717 206.727 C 159.326 205.140,158.471 174.503,157.634 167.936 C 157.218 164.671,156.951 157.585,157.039 152.190 C 157.182 143.507,157.041 142.329,155.816 141.941 C 155.055 141.700,153.759 139.982,152.938 138.125 C 149.349 130.012,140.852 126.895,140.812 133.676 C 140.792 137.169,138.713 138.210,130.800 138.689 C 126.840 138.929,121.260 139.495,118.400 139.946 C 111.684 141.007,88.316 141.007,81.600 139.946 C 78.740 139.495,73.160 138.929,69.200 138.689 C 61.439 138.219,59.200 137.156,59.200 133.941 C 59.200 129.411,57.344 128.529,53.200 131.088 M253.200 131.088 C 250.008 133.060,248.313 135.056,246.844 138.571 C 246.175 140.173,244.991 141.685,244.214 141.932 C 242.960 142.330,242.799 143.535,242.795 152.590 C 242.792 158.206,242.516 164.960,242.182 167.600 C 241.464 173.272,240.729 205.285,241.284 206.731 C 242.122 208.915,258.463 208.380,262.671 206.030 C 264.710 204.892,266.653 203.957,266.989 203.952 C 268.611 203.929,275.108 201.617,277.600 200.176 C 281.874 197.705,291.020 196.000,300.000 196.000 C 308.980 196.000,318.126 197.705,322.400 200.176 C 324.853 201.594,332.036 204.143,333.202 204.009 C 333.433 203.982,335.327 204.918,337.411 206.087 C 341.186 208.207,341.246 208.213,354.000 207.766 C 374.655 207.044,373.899 207.964,374.275 183.079 C 374.699 155.094,372.438 147.274,363.200 144.773 C 356.376 142.926,354.536 141.737,352.948 138.149 C 349.350 130.015,340.852 126.883,340.812 133.676 C 340.792 137.169,338.713 138.210,330.800 138.689 C 326.840 138.929,321.260 139.495,318.400 139.946 C 311.684 141.007,288.316 141.007,281.600 139.946 C 278.740 139.495,273.160 138.929,269.200 138.689 C 261.439 138.219,259.200 137.156,259.200 133.941 C 259.200 129.411,257.344 128.529,253.200 131.088 " stroke="none" fill="#306918" fill-rule="evenodd"></path><path id="path8" d="M54.200 128.389 C 52.110 128.964,50.400 129.264,50.400 129.056 C 50.400 127.395,46.047 134.423,44.875 137.976 C 43.091 143.381,44.392 143.567,46.931 138.270 C 48.937 134.084,52.834 130.513,56.112 129.858 C 57.370 129.606,58.400 128.905,58.400 128.300 C 58.400 127.695,58.310 127.232,58.200 127.272 C 58.090 127.311,56.290 127.814,54.200 128.389 M141.600 128.372 C 141.600 128.938,142.630 129.606,143.888 129.858 C 147.179 130.516,151.204 134.206,152.959 138.174 C 155.604 144.152,156.664 141.801,154.260 135.289 C 153.612 133.532,149.600 128.175,149.600 129.066 C 149.600 129.280,147.800 128.980,145.600 128.400 C 142.357 127.545,141.600 127.539,141.600 128.372 M254.200 128.389 C 252.110 128.964,250.400 129.264,250.400 129.056 C 250.400 128.172,246.384 133.544,245.740 135.289 C 243.336 141.801,244.396 144.152,247.041 138.174 C 248.796 134.206,252.821 130.516,256.112 129.858 C 257.370 129.606,258.400 128.905,258.400 128.300 C 258.400 127.695,258.310 127.232,258.200 127.272 C 258.090 127.311,256.290 127.814,254.200 128.389 M341.600 128.372 C 341.600 128.938,342.630 129.606,343.888 129.858 C 347.166 130.513,351.063 134.084,353.069 138.270 C 355.608 143.567,356.909 143.381,355.125 137.976 C 353.949 134.410,349.600 127.397,349.600 129.066 C 349.600 129.280,347.800 128.980,345.600 128.400 C 342.357 127.545,341.600 127.539,341.600 128.372 M41.533 142.732 C 41.350 142.914,39.580 143.205,37.600 143.379 C 35.620 143.552,33.190 144.135,32.200 144.675 C 31.210 145.215,30.400 145.449,30.400 145.197 C 30.400 144.944,29.898 145.201,29.284 145.768 C 28.670 146.336,28.331 147.070,28.531 147.400 C 28.731 147.730,28.573 148.000,28.181 148.000 C 27.788 148.000,27.443 148.450,27.413 149.000 C 27.384 149.550,26.958 152.664,26.466 155.919 C 25.276 163.797,25.803 163.912,27.473 156.139 C 29.073 148.692,31.192 146.199,37.200 144.691 C 40.554 143.848,43.775 142.400,42.293 142.400 C 42.059 142.400,41.717 142.549,41.533 142.732 M358.000 142.996 C 358.440 143.376,360.600 144.138,362.800 144.691 C 368.808 146.199,370.927 148.692,372.527 156.139 C 374.197 163.912,374.724 163.797,373.534 155.919 C 373.042 152.664,372.616 149.550,372.587 149.000 C 372.557 148.450,372.212 148.000,371.819 148.000 C 371.427 148.000,371.269 147.730,371.469 147.400 C 371.669 147.070,371.330 146.336,370.716 145.768 C 370.102 145.201,369.600 144.944,369.600 145.197 C 369.600 145.449,368.790 145.216,367.800 144.678 C 366.810 144.141,364.560 143.576,362.800 143.423 C 361.040 143.270,359.060 142.956,358.400 142.725 C 357.671 142.470,357.514 142.576,358.000 142.996 M26.400 203.298 C 26.400 204.993,28.971 207.212,30.863 207.149 C 32.257 207.103,32.240 207.034,30.686 206.407 C 29.743 206.026,28.393 204.889,27.686 203.879 C 26.766 202.566,26.400 202.401,26.400 203.298 M372.168 204.029 C 371.603 204.933,370.344 205.994,369.370 206.386 C 367.640 207.082,367.638 207.100,369.276 207.149 C 371.120 207.205,373.930 204.590,373.479 203.238 C 373.323 202.769,372.733 203.124,372.168 204.029 M35.000 207.765 C 35.990 207.955,37.610 207.955,38.600 207.765 C 39.590 207.574,38.780 207.418,36.800 207.418 C 34.820 207.418,34.010 207.574,35.000 207.765 M361.400 207.765 C 362.390 207.955,364.010 207.955,365.000 207.765 C 365.990 207.574,365.180 207.418,363.200 207.418 C 361.220 207.418,360.410 207.574,361.400 207.765 " stroke="none" fill="#00aa00" fill-rule="evenodd"></path><path id="path9" d="M47.203 131.597 C 46.171 132.695,45.478 133.728,45.664 133.891 C 45.849 134.055,46.837 133.157,47.861 131.895 C 50.151 129.070,49.748 128.888,47.203 131.597 M152.069 131.695 C 153.131 133.067,154.161 134.046,154.358 133.870 C 154.554 133.695,153.685 132.572,152.426 131.376 L 150.138 129.200 152.069 131.695 M247.203 131.597 C 246.171 132.695,245.478 133.728,245.664 133.891 C 245.849 134.055,246.837 133.157,247.861 131.895 C 250.151 129.070,249.748 128.888,247.203 131.597 M352.069 131.695 C 353.131 133.067,354.161 134.046,354.358 133.870 C 354.554 133.695,353.685 132.572,352.426 131.376 L 350.138 129.200 352.069 131.695 M25.029 310.000 C 25.035 312.200,25.190 313.005,25.374 311.789 C 25.558 310.573,25.553 308.773,25.363 307.789 C 25.173 306.805,25.023 307.800,25.029 310.000 M174.629 310.000 C 174.635 312.200,174.790 313.005,174.974 311.789 C 175.158 310.573,175.153 308.773,174.963 307.789 C 174.773 306.805,174.623 307.800,174.629 310.000 M225.029 310.000 C 225.035 312.200,225.190 313.005,225.374 311.789 C 225.558 310.573,225.553 308.773,225.363 307.789 C 225.173 306.805,225.023 307.800,225.029 310.000 M374.629 310.000 C 374.635 312.200,374.790 313.005,374.974 311.789 C 375.158 310.573,375.153 308.773,374.963 307.789 C 374.773 306.805,374.623 307.800,374.629 310.000 M27.224 352.542 C 27.192 353.805,31.088 356.808,32.708 356.769 C 33.419 356.751,32.866 356.244,31.480 355.641 C 30.094 355.038,28.575 353.882,28.105 353.072 C 27.634 352.263,27.238 352.024,27.224 352.542 M171.711 353.199 C 171.443 353.896,170.049 354.978,168.612 355.602 C 167.176 356.227,166.610 356.751,167.355 356.769 C 168.947 356.805,173.431 353.168,172.699 352.434 C 172.423 352.157,171.979 352.502,171.711 353.199 M227.224 352.542 C 227.192 353.805,231.088 356.808,232.708 356.769 C 233.419 356.751,232.866 356.244,231.480 355.641 C 230.094 355.038,228.575 353.882,228.105 353.072 C 227.634 352.263,227.238 352.024,227.224 352.542 M371.711 353.199 C 371.443 353.896,370.049 354.978,368.612 355.602 C 367.176 356.227,366.610 356.751,367.355 356.769 C 368.947 356.805,373.431 353.168,372.699 352.434 C 372.423 352.157,371.979 352.502,371.711 353.199 " stroke="none" fill="#00ff00" fill-rule="evenodd"></path></g></svg>